<?xml version="1.0" encoding="UTF-8" standalone="no"?>
<!-- Created with Inkscape (http://www.inkscape.org/) -->

<svg
   xmlns:dc="http://purl.org/dc/elements/1.1/"
   xmlns:cc="http://creativecommons.org/ns#"
   xmlns:rdf="http://www.w3.org/1999/02/22-rdf-syntax-ns#"
   xmlns:svg="http://www.w3.org/2000/svg"
   xmlns="http://www.w3.org/2000/svg"
   xmlns:sodipodi="http://sodipodi.sourceforge.net/DTD/sodipodi-0.dtd"
   xmlns:inkscape="http://www.inkscape.org/namespaces/inkscape"
   id="svg2985"
   version="1.1"
   inkscape:version="0.48.4 r9939"
   width="99.998535"
   height="100"
   xml:space="preserve"
   sodipodi:docname="AtContent_sign_one_color.svg"><metadata
     id="metadata2991"><rdf:RDF><cc:Work
         rdf:about=""><dc:format>image/svg+xml</dc:format><dc:type
           rdf:resource="http://purl.org/dc/dcmitype/StillImage" /><dc:title></dc:title></cc:Work></rdf:RDF></metadata><defs
     id="defs2989"><clipPath
       clipPathUnits="userSpaceOnUse"
       id="clipPath2999"><path
         d="M 0,145 257,145 257,0 0,0 0,145 z"
         id="path3001"
         inkscape:connector-curvature="0" /></clipPath></defs><sodipodi:namedview
     pagecolor="#ffffff"
     bordercolor="#666666"
     borderopacity="1"
     objecttolerance="10"
     gridtolerance="10"
     guidetolerance="10"
     inkscape:pageopacity="0"
     inkscape:pageshadow="2"
     inkscape:window-width="1827"
     inkscape:window-height="1057"
     id="namedview2987"
     showgrid="false"
     fit-margin-top="0"
     fit-margin-left="0"
     fit-margin-right="17.47"
     fit-margin-bottom="0"
     showborder="true"
     inkscape:zoom="4.816609"
     inkscape:cx="39.253088"
     inkscape:cy="33.230683"
     inkscape:window-x="-8"
     inkscape:window-y="-8"
     inkscape:window-maximized="1"
     inkscape:current-layer="g2993" /><g
     id="g2993"
     inkscape:groupmode="layer"
     inkscape:label="AtContent logo_full_one color_blue"
     transform="matrix(1.25,0,0,-1.25,-89.296481,157.70681)"><g
       id="g3003"
       transform="matrix(1.0820754,0,0,1.0820754,111.43502,46.165451)"
       style="fill:#13669d;fill-opacity:1"><path
         d="m 0,0 c 9.186,0 17.586,3.351 24.051,8.895 l -1.525,3.301 -1.756,3.808 -18.222,39.485 -2.746,0 -2.402,0 -0.079,0 -15.324,-33.206 -2.856,-6.189 c -5.344,5.341 -8.65,12.719 -8.65,20.872 0,16.3 13.209,29.511 29.509,29.511 2.955,0 5.803,-0.437 8.496,-1.244 l 2.787,6.942 C 7.728,73.313 3.936,73.932 0,73.932 -20.417,73.932 -36.964,57.384 -36.964,36.966 -36.964,16.549 -20.417,0 0,0 m 0,20.333 c 3.536,0 6.815,1.103 9.511,2.983 l 0.191,-0.415 0.014,0.011 0.234,-0.506 2.313,-5.185 2.585,-5.762 C 10.486,8.915 5.414,7.457 0,7.457 c -5.481,0 -10.611,1.496 -15.007,4.097 l 4.55,9.862 0.895,1.938 C -6.857,21.451 -3.56,20.333 0,20.333 m 6.414,9.73 C 4.734,28.499 2.479,27.542 0,27.542 c -2.496,0 -4.765,0.97 -6.451,2.554 l 0.18,0.389 0.137,0.299 6.069,14.068 2.363,-5.296 3.769,-8.74 0.347,-0.753 z"
         style="fill:#13669d;fill-opacity:1;fill-rule:evenodd;stroke:none"
         id="path3005"
         inkscape:connector-curvature="0" /></g></g></svg>